<svg xmlns="http://www.w3.org/2000/svg" width="420" height="746" viewBox="0 0 420 746"><defs><linearGradient id="bg" x1="0" y1="0" x2="1" y2="1"><stop stop-color="#fffaf6"/><stop offset="1" stop-color="#fff0e4"/></linearGradient><linearGradient id="o" x1="0" y1="0" x2="1" y2="1"><stop stop-color="#d76424"/><stop offset="1" stop-color="#f39a58"/></linearGradient><filter id="s"><feDropShadow dx="0" dy="10" stdDeviation="10" flood-color="#7a3517" flood-opacity=".12"/></filter></defs><rect width="420" height="746" rx="38" fill="url(#bg)"/><circle cx="360" cy="54" r="92" fill="#f9d6c0" opacity=".35"/><text x="28" y="44" fill="#d76424" font-family="Microsoft YaHei,Arial" font-size="18" font-weight="700">DR.JOO AI 工作台</text><text x="28" y="78" fill="#8a6f62" font-family="Microsoft YaHei,Arial" font-size="13">俏博士门店增长助手</text><rect x="28" y="106" width="364" height="10" rx="5" fill="#f7dac7"/><rect x="28" y="106" width="364" height="10" rx="5" fill="url(#o)"/><rect x="28" y="142" width="364" height="54" rx="22" fill="#fff" filter="url(#s)"/><text x="48" y="176" fill="#d76424" font-family="Microsoft YaHei,Arial" font-size="16" font-weight="700">05 / 05　总部审核发布</text><rect x="28" y="220" width="364" height="386" rx="28" fill="#fff" stroke="#f0cbb3"/><rect x="52" y="246" width="316" height="58" rx="20" fill="#eaf8ed"/><text x="148" y="282" fill="#16803d" font-family="Microsoft YaHei,Arial" font-size="22" font-weight="800">审核通过</text><text x="52" y="338" fill="#241711" font-family="Microsoft YaHei,Arial" font-size="22" font-weight="800">审核结果</text><g font-family="Microsoft YaHei,Arial" font-size="15"><text x="60" y="374" fill="#16803d">✓ 敏感词检测：通过</text><text x="60" y="410" fill="#16803d">✓ 功效表达：通过</text><text x="60" y="446" fill="#16803d">✓ 价格规范：通过</text><text x="60" y="482" fill="#16803d">✓ Logo使用：通过</text><rect x="52" y="512" width="316" height="62" rx="18" fill="#fff7f0" stroke="#f0cbb3"/><text x="68" y="538" fill="#d76424" font-size="15" font-weight="800">发布建议</text><text x="68" y="562" fill="#3d2a22" font-size="13">建议发布时间：今晚 19:30　配图：方案A</text></g><rect x="28" y="632" width="364" height="62" rx="31" fill="url(#o)"/><text x="166" y="670" fill="#fff" font-family="Microsoft YaHei,Arial" font-size="18" font-weight="800">一键发布</text></svg>